<?xml version="1.0" encoding="UTF-8"?>
<svg width="2315px" height="646px" viewBox="0 0 2315 646" version="1.1" xmlns="http://www.w3.org/2000/svg" xmlns:xlink="http://www.w3.org/1999/xlink">
    <title>BG</title>
    <defs>
        <rect id="path-1" x="0" y="0" width="2312" height="646"></rect>
        <linearGradient x1="76.132116%" y1="12.4915237%" x2="25.1506652%" y2="100%" id="linearGradient-3">
            <stop stop-color="#51D9BF" stop-opacity="0.172865716" offset="0%"></stop>
            <stop stop-color="#28B28B" stop-opacity="0" offset="100%"></stop>
        </linearGradient>
    </defs>
    <g id="Web3.0职业课" stroke="none" stroke-width="1" fill="none" fill-rule="evenodd">
        <g id="首页金刚区优化">
            <g id="BG">
                <rect id="矩形" fill="#FFFFFF" x="0" y="0" width="2315" height="646"></rect>
                <g id="顶部花纹">
                    <mask id="mask-2" fill="white">
                        <use xlink:href="#path-1"></use>
                    </mask>
                    <g id="Mask" fill-rule="nonzero"></g>
                    <g id="分组-5" mask="url(#mask-2)">
                        <g transform="translate(236.000000, -209.000000)">
                            <g id="编组-4" stroke-width="1" fill="none" fill-rule="evenodd" transform="translate(0.000000, 457.000000)">
                                <g id="分组-13" opacity="0.0921223958" transform="translate(0.000000, 1.000000)" fill-rule="nonzero" stroke="#28B28B">
                                    <path d="M205,411 C91.7816263,411 0,319.218374 0,206 C0,92.7816263 92.395449,12.1324056 205,1 C245.460096,-3 260.254728,47 286.83124,55 C338.608963,70.5860094 396.512885,34.9231795 426,70 C449.076669,97.4511827 462,160.01496 462,204 C462,317.218374 318.218374,411 205,411 Z" id="椭圆形"></path>
                                    <path d="M215.316211,362.43743 C102.658499,354.647528 53,289.947282 53,206 C53,122.052718 121.273742,48.8989096 205,54 C254.240212,57 266.110994,93.6554158 286.83124,104.24046 C336.066888,129.392743 415.729595,85.9170757 415.729595,145 C415.729595,228.947282 327.973923,370.227333 215.316211,362.43743 Z" id="椭圆形"></path>
                                    <path d="M204.267686,306.267686 C148.891372,306.267686 104,261.376314 104,206 C104,150.623686 148.891372,105.732314 204.267686,105.732314 C234.97502,105.732314 243.368854,117.727772 261.761383,139.468695 C275.714804,155.962363 287.73236,149.549269 301.03932,166.378471 C314.34628,183.207673 313.416844,206.69871 313.416844,208.07169 C313.416844,263.448004 259.644001,306.267686 204.267686,306.267686 Z" id="椭圆形"></path>
                                    <circle id="椭圆形" cx="205" cy="206" r="52"></circle>
                                    <circle id="椭圆形" cx="205" cy="206" r="21"></circle>
                                </g>
                                <rect id="矩形" fill="#D8D8D8" opacity="0" x="0" y="0" width="462" height="421"></rect>
                            </g>
                            <g id="编组-6" stroke-width="1" fill="none" fill-rule="evenodd" transform="translate(1391.000000, 0.000000)">
                                <g id="分组-13" opacity="0.120744978" fill-rule="nonzero" stroke="#28B28B">
                                    <path d="M238.283157,417.201701 C351.501531,417.201701 436,318.218374 436,205 C436,91.7816263 344.218374,0 231,0 C117.781626,0 21.1345309,125.380285 1.89332833,236.959702 C-14.4793544,331.904619 103.490807,335.183553 166.382708,360.598819 C200.868131,374.534733 198.37199,417.201701 238.283157,417.201701 Z" id="椭圆形"></path>
                                    <path d="M246,373.574418 C329.947282,373.574418 383,288.947282 383,205 C383,121.052718 314.947282,53 231,53 C147.052718,53 79,121.052718 79,205 C79,266.940063 81.3040405,294.697356 176.777582,312.164179 C214.142136,319 223.992781,373.574418 246,373.574418 Z" id="椭圆形"></path>
                                    <path d="M254.711719,329 C310.419158,325.81536 332,260.78076 332,205 C332,149.21924 286.78076,104 231,104 C175.21924,104 130,149.21924 130,205 C130,244.038559 171.799769,264.187822 204.216211,281 C218.11843,288.210124 223.593929,330.778918 254.711719,329 Z" id="椭圆形"></path>
                                    <circle id="椭圆形" cx="231" cy="205" r="52"></circle>
                                    <circle id="椭圆形" cx="231" cy="205" r="21"></circle>
                                </g>
                                <rect id="矩形" fill="#D8D8D8" opacity="0" x="0" y="209" width="436" height="209"></rect>
                            </g>
                            <circle id="椭圆形" fill="url(#linearGradient-3)" fill-rule="nonzero" cx="239.5" cy="528.5" r="18.5"></circle>
                            <circle id="椭圆形" fill="url(#linearGradient-3)" fill-rule="nonzero" cx="1565" cy="313" r="16"></circle>
                        </g>
                    </g>
                </g>
            </g>
        </g>
    </g>
</svg>