<svg width="120" height="45" xmlns="http://www.w3.org/2000/svg"><g fill="#FFF"><path d="M56.131 13.919a4.237 4.237 0 0 1-6.046 0 4.337 4.337 0 0 1-1.252-3.059 4.34 4.34 0 0 1 1.252-3.06 4.236 4.236 0 0 1 3.022-1.266c1.183 0 2.251.484 3.024 1.266a4.34 4.34 0 0 1 1.253 3.06 4.338 4.338 0 0 1-1.253 3.059m-14.504 0a4.24 4.24 0 0 1-6.047 0 4.34 4.34 0 0 1-1.252-3.059c0-1.195.48-2.277 1.252-3.06a4.24 4.24 0 0 1 6.047 0 4.342 4.342 0 0 1 1.253 3.06 4.34 4.34 0 0 1-1.253 3.059m34.929-.106c-.542.567-1.22 1.524-2.75 1.63l-6-.293-.006-8.034c-.002-2.806.5-3.698 1.112-4.146.743-.544 1.647-.9 2.01-2.373.026-.114.045-.308-.011-.422-.056-.114-.189-.148-.325.056-.504.747-.886 1.062-1.907.815-2.966-.715-6.315-1.177-6.315 4.496l-.001.584c0 .369-.305.598-.553.047-.038-.08-.074-.16-.113-.24-.721-1.493-1.652-2.778-3.117-3.729A10.018 10.018 0 0 0 53.107.586c-2.06 0-4.13.565-5.749 1.84-1 .789-1.736 1.907-2.132 2.84-.074.171-.307.482-.434.173-.286-.703.552-2.045.757-3.04a2.04 2.04 0 0 0 .03-.773c-.097-.563-.384-.275-.432-.069-.324 1.365-1.828.519-2.55.118C41.345.983 40.123.586 38.603.586c-2.803 0-5.341 1.15-7.178 3.01a10.299 10.299 0 0 0-2.975 7.264c0 2.835 1.016 5.527 2.853 7.386 1.838 1.86 4.497 2.887 7.3 2.887 2.083 0 6.613-1.356 6.147-4.094-.027-.153-.134-.57-.081-.672.083-.162.208-.142.32 0 .238.31.39.665.59.976 1.32 2.08 4.305 3.79 7.527 3.79 1.753 0 3.403-.45 4.84-1.24 1.706-.939 2.882-2.413 3.721-4.126.027-.056.053-.11.078-.166.235-.503.608-.584.608.051l-.005 4.018c0 1.168 1.147 1.65 2.956 1.476h7.971c2.031 0 2.89-.719 3.145-2.268.203-1.23.013-2.107.091-2.935.116-1.209.511-1.821.552-1.915.165-.363-.191-.55-.508-.215"/><path d="M29.605 17.255c-1.235-.92-1.666-1.362-1.134-2.683.185-.456-.147-.575-.363-.4-1.37 1.103-3.026 1.37-4.67.831-4.577-1.502-3.091-9.065 1.798-8.466 1.867.228 3.475-.266 4.406-2.195.487-1.01.703-2.052.92-3.953.063-.467-.407-.479-.512-.218-.317.79-.622 1.022-.964 1.103-.944.222-1.814-.228-2.772-.382-1.544-.247-2.672-.233-4.16.166-1.702.457-3.237 1.333-4.442 2.553-1.838 1.86-2.915 4.52-2.915 7.356 0 1.192.145 2.336.448 3.4 0 .008.002.013.004.02.286 1.202.053 1.16-.849 1.18H7.474l6.238-6.917c1.852-1.873 1.834-2.763 1.834-5.086 0-.756-.073-1.505.083-2.25.079-.363-.098-.462-.452-.338-.653.228-1.912.2-3.864.2l-9.037.014c-.498-.03-.77-.356-.583-.758.048-.102.093-.392-.154-.36C.201.728-.082 3.448.019 5.2c.05.876.525 1.446 1.187 1.448h7.17L1.02 14.534a3.7 3.7 0 0 0-.999 2.532l.008 2.257c-.012 1.024.561 1.626 1.719 1.804h12.289c1.198-.228 2.043-.771 1.902-2.185v-1.497c.091-.394.356-.366.645-.241.258.362.546.704.863 1.026a10.064 10.064 0 0 0 7.18 3.01 7.47 7.47 0 0 0 3.14-.713c1.084-.506 2.237-1.343 2.419-2.22.071-.346-.118-.708-.582-1.052M88.397 3.878h-4.42l1.724-.469a8.077 8.077 0 0 0-.344-.776 11.06 11.06 0 0 0-.49-.875 8.438 8.438 0 0 0-.571-.835l-2.148.505c.158.251.315.522.471.808.157.286.299.573.426.857.131.281.233.545.316.785h-3.808v2.445h8.844V3.878zM81.085 16.64l2.064-.513c-.153-2.826-.497-5.677-.958-8.452l-1.935.41c.394 2.82.743 5.696.829 8.556m14.467-4.713c.122-.005.275.039.275.277v6.135c-.002.122-.061.175-.18.157h-4.772c-.12.023-.179-.035-.182-.175v-6.134c-.022-.232.101-.287.294-.26h4.565zm3.177-8.75c-.234.239-.49.532-1.19.585h-1.642v.006h-1.93V.816H91.49v8.722h-1.665c-1.009 0-1.633.224-1.633 1.139v8.886c0 1.007.572 1.35 1.654 1.358l6.627.05c1.36-.042 1.89-.716 1.794-1.61l.028-8.6c0-.88-.786-1.223-1.748-1.223h-2.581V6.202h1.93v.003h1.446c.754 0 1.128-.346 1.222-.981.077-.506-.05-.916-.022-1.255.044-.497.214-.819.186-.79zm17.448 5.692V6.22h2.06c.692 0 1.035-.316 1.12-.899.07-.463-.046-.839-.02-1.151.038-.454.197-.748.171-.724-.217.218-.452.487-1.09.536h-.369v-.001h-1.872V.816h-2.181V3.98h-1.39c.127-.701.319-1.41.423-2.11l-2.116-.41a27.124 27.124 0 0 1-.257 1.705c-.103.568-.221 1.12-.36 1.654a14.972 14.972 0 0 1-.471 1.512c-.178.47-.373.893-.593 1.266.715.3 1.21.668 1.844 1.12.18-.354.352-.742.51-1.158.161-.42.308-.866.447-1.34h1.963v2.65h-4.318v2.26h10.28V8.87h-3.781z"/><path d="M107.249 18.47h-4.783c-.205 0-.206-.133-.209-.214v-1.579h5.2v1.565c.022.13-.048.206-.208.228zm-4.992-5.27l.857.964c.695-.794 1.158-1.667 1.301-2.722.062-.466.092-.912.092-1.331V7.706h.725v4.17c0 1.253.29 1.573 1.545 1.573h.68v1.377h-5.2V13.2zm0-5.29c.006-.139.07-.206.196-.204h.548v2.2c0 .3-.01.618-.045.944a4.774 4.774 0 0 1-.214.968c-.106.324-.27.632-.485.93V7.911zm2.084-2.336h1.204V3.7h-1.204v1.873zm2.415 2.132h.498c.17 0 .204.024.204.223v4.004h-.511c-.082 0-.133-.012-.16-.05-.023-.036-.031-.13-.031-.273V7.706zm.647-2.132V3.7h2.172V1.59h-9.172V3.7h2.04v1.873c-1.36 0-1.937.06-1.937 1.118V19.65c0 .805.253 1.132 1.854 1.135l5.19.01c.968 0 1.682-.2 1.682-1.148V6.605c0-.857-.334-1.031-1.83-1.031zm9.542 12.978h-4.152c-.127 0-.235-.024-.204-.219v-3.5c0-.171-.021-.255.208-.255l4.1.007c.185-.001.278-.042.278.2l.003 3.548c-.03.153-.107.227-.233.219m.886-6.196l-5.723-.001c-1.097 0-1.748.292-1.748 1.209V19.5c0 .688.13 1.238 1.781 1.25l5.266.033c1.182.053 1.823-.225 1.955-1.233v-5.838c0-1.12-.807-1.356-1.531-1.356M85.83 16.94c.647-2.94 1.03-6.011 1.47-9.008l-2.32-.462c-.24 3.329-.583 6.776-1.192 10.035-.846.21-1.64.402-2.388.583-.744.179-1.42.325-2.019.444l.555 2.604c.75-.206 1.559-.433 2.436-.678.871-.243 1.774-.5 2.703-.77.933-.265 1.86-.539 2.776-.813l-.255-2.397-1.765.462zM6.727 34.083h.867v2.075h2.942v.825H7.594v2.299h2.368v5.553h-.82v-.778H5.835v.79h-.808v-5.565h1.699v-5.2zm-.89 9.184H9.14v-3.242H5.836v3.242zM.081 36.05H1.98a13.924 13.924 0 0 0-.504-1.733l.855-.141c.164.542.317 1.167.457 1.874h1.899v.826H.082v-.826zm1.067 1.533c.28 1.368.539 2.948.761 4.716l-.703.177A59.136 59.136 0 0 0 .41 37.82l.739-.236zM4.5 42.312v.825c-1.336.39-2.766.708-4.3.967L0 43.29a29.358 29.358 0 0 0 2.543-.46c.375-1.674.633-3.454.797-5.34l.82.118c-.187 1.815-.457 3.49-.832 5.034a34.02 34.02 0 0 0 1.172-.33zm17.341-7.734h5.016v.778h-1.5v1.391h1.207v8.135h-.703v-.672h-2.965v.672h-.691v-8.135h1.207v-1.391h-1.57v-.778zm1.055 8.936h2.965v-1.261h-2.965v1.261zm.668-6.071h-.668v3.053c.434-.507.656-1.25.668-2.216v-.837zm-.668 3.336v.79h2.965v-1.132h-.621c-.352 0-.527-.224-.527-.66v-2.334h-.668v.837c-.024 1.25-.317 2.157-.891 2.723l-.258-.224zm1.149-4.032h.68v-1.391h-.68v1.391zm1.816 3.113v-2.417h-.668v2.204c0 .142.047.213.164.213h.504zm2.203-3.195a10.91 10.91 0 0 1-.562 1.355l-.645-.412a12.12 12.12 0 0 0 1.055-3.148l.703.153c-.094.448-.2.884-.305 1.285h1.16V34.13h.774v1.768h2.016v.767h-2.016v1.91h2.215v.778h-5.496v-.779h2.508v-1.91h-1.407zm3.915 3.878v4.35h-.786v-.53H28.24v.53h-.773v-4.35h4.512zm-3.739 3.042h2.953v-2.263H28.24v2.263zm20.88-7.074h.786v.778h2.508v-.825h.773v.825h.914v.72h-.914v4.02h1.125v.754h-6.399v-.754h1.207v-4.02h-.925v-.72h.925v-.778zm.786 5.518h2.508v-.908h-2.508v.908zm2.508-4.02h-2.508v.955h2.508v-.955zm-2.508 2.475h2.508v-.896h-2.508v.896zm2.32 2.441c.844.436 1.559.92 2.156 1.462l-.515.613c-.54-.542-1.242-1.05-2.098-1.52l.457-.555zm-2.11-.024l.563.507c-.621.602-1.383 1.12-2.285 1.568l-.504-.648c.879-.413 1.617-.884 2.227-1.427zm-6.293-7.144h1.735a11.973 11.973 0 0 0-.621-1.486l.808-.236c.258.566.446 1.097.574 1.568l-.398.154h1.652v.66c.61-.625 1.102-1.427 1.477-2.405l.75.165a8.938 8.938 0 0 1-.387.896h4.665v.778H48.99a8.005 8.005 0 0 1-.925 1.19l-.493-.6v.141h-2.05v1.603h1.91c0 3.019-.059 4.881-.164 5.577-.117.707-.586 1.061-1.43 1.061-.106 0-.27-.012-.504-.035l-.176-.696c.211.024.387.036.551.036.457 0 .727-.224.809-.649.07-.483.117-1.992.129-4.515h-1.149c-.117 2.664-.539 4.657-1.29 5.977l-.62-.542c.738-1.368 1.113-3.573 1.137-6.603v-1.214h-.903v-.825zM65.7 34.719h10.418v.837h-5.086v1.78c1.453.732 2.93 1.58 4.43 2.547l-.504.755c-1.559-1.038-2.871-1.84-3.926-2.405v6.696h-.856v-9.373H65.7v-.837zm23.857-.13h6.457v3.856h-6.457v-3.856zm5.613 3.054v-2.252H90.4v2.252h4.77zm-3.047 1.969v5.117h-.82v-.601H88.83v.6h-.832v-5.116h4.125zm-3.293 3.714h2.473v-2.9H88.83v2.9zm8.743-3.714v5.117h-.844v-.601h-2.567v.6h-.832v-5.116h4.243zm-3.41 3.714h2.566v-2.9h-2.567v2.9zm17.926-9.102h.809v3.148h.656v.79h-2.707v.59c0 .388-.012.754-.023 1.108h2.203v4.88h-.82v-4.09h-1.419c-.14 1.898-.468 3.348-.996 4.35l-.62-.542c.562-1.18.855-3.09.866-5.707V34.46h.81v2.912h1.241v-3.148zm2.016.92h1.817a5.93 5.93 0 0 0 .375-1.144l.843.106a6.025 6.025 0 0 1-.363 1.038h2.625v4.987h-2.707l-.14.283c-.352.601-.915 1.073-1.688 1.415h2.285v-1.227h.82v1.227H120v.813h-2.027v2.228h-.82v-2.228h-3.587v-.813h1.16l-.34-.543c.668-.306 1.149-.684 1.454-1.155h-1.735v-4.987zm4.524 4.244v-1.403h-1.5a7.97 7.97 0 0 1-.188 1.403h1.688zm-2.473 0c.117-.424.188-.884.211-1.403h-1.5v1.403h1.289zm-1.29-2.122h1.513v-1.368h-1.512v1.368zm2.274-1.368v1.368h1.489v-1.368h-1.489z"/></g></svg>