<svg width="212" height="159" xmlns="http://www.w3.org/2000/svg"><g fill="none" fill-rule="evenodd"><path fill="#EBF1EF" fill-rule="nonzero" d="M0 0h212v159H0z"/><path d="M109.054 83.206a14.36 14.36 0 0 1-1.6 2.99c-1.424 2.05-3.164 3.353-5.033 3.77a8.972 8.972 0 0 1-1.945.223c-3.594 0-5.258-2.4-5.328-2.503a.197.197 0 0 1-.015-.194.204.204 0 0 1 .16-.116c2.227-.285 2.609-.348 5.135-1.042 3.275-.9 8.29-3.35 8.34-3.375a.21.21 0 0 1 .228.03c.063.054.086.14.058.217M88.719 87.53c-.006.017-.6 1.674-2.253 1.674-.33 0-.682-.067-1.046-.199-2.168-.78-3.162-4.324-3.203-4.474a.2.2 0 0 1 .089-.223.208.208 0 0 1 .243.018c.015.013 1.597 1.339 2.841 1.95 1.35.661 1.823.81 3.162.99.061.008.115.042.147.093.032.051.04.114.02.17m42.741-11.598a29.056 29.056 0 0 1-6.512 1.459c3.875-5.013 6.175-11.262 6.175-18.038 0-.474-.012-.946-.034-1.415-.016-.326-.442-.543-.71-.253a28.838 28.838 0 0 1-16.925 8.899 13.81 13.81 0 0 0 1.423-6.12c0-1.842-.36-3.6-1.016-5.213a.413.413 0 0 0-.762.009c-1.992 4.976-6.95 7.588-12.583 8.493C88.646 65.66 80 72.762 80 83.876 80 94.99 89.185 104 100.516 104c9.963 0 18.265-6.966 20.126-16.203 5.347-1.855 9.56-6.066 11.34-11.362a.405.405 0 0 0-.522-.504" fill="#D7E0DE"/></g></svg>